HIERARCHY
ROOT reference
{
  OFFSET 0 0 0
  CHANNELS 6 Xposition Yposition Zposition Zrotation Xrotation Yrotation
  JOINT Hips
  {
    OFFSET 352.076 86.5813 226.294
    CHANNELS 3 Zrotation Xrotation Yrotation
    JOINT RightUpLeg
    {
      OFFSET -9.24446 -1.53332 -0.0100408
      CHANNELS 3 Zrotation Xrotation Yrotation
      JOINT RightLeg
      {
        OFFSET 0.0379954 -41.8775 0.0555708
        CHANNELS 3 Zrotation Xrotation Yrotation
        JOINT RightFoot
        {
          OFFSET 0.0737403 -43.7597 -0.208372
          CHANNELS 3 Zrotation Xrotation Yrotation
          End Site
          {
            OFFSET 0 -7.69 17.5
          }
        }
      }
    }
    JOINT LeftUpLeg
    {
      OFFSET 9.31004 -1.65148 -0.0333589
      CHANNELS 3 Zrotation Xrotation Yrotation
      JOINT LeftLeg
      {
        OFFSET 0.0881386 -41.8624 -0.0616493
        CHANNELS 3 Zrotation Xrotation Yrotation
        JOINT LeftFoot
        {
          OFFSET 0.763074 -39.9619 0.249975
          CHANNELS 3 Zrotation Xrotation Yrotation
          End Site
          {
            OFFSET 0 -7.69 17.5
          }
        }
      }
    }
    JOINT Spine
    {
      OFFSET 0.105097 14.2958 0.096313
      CHANNELS 3 Zrotation Xrotation Yrotation
      JOINT Spine1
      {
        OFFSET 0.0609256 9.72986 0.0283835
        CHANNELS 3 Zrotation Xrotation Yrotation
        JOINT Spine2
        {
          OFFSET 0.0349843 10.1145 -0.0203086
          CHANNELS 3 Zrotation Xrotation Yrotation
          JOINT Spine3
          {
            OFFSET 0.0323734 9.71864 0.0196425
            CHANNELS 3 Zrotation Xrotation Yrotation
            JOINT Neck
            {
              OFFSET 0.219168 10.3708 0.0833364
              CHANNELS 3 Zrotation Xrotation Yrotation
              JOINT Head
              {
                OFFSET 0.200748 9.48753 0.0966912
                CHANNELS 3 Zrotation Xrotation Yrotation
                End Site
                {
                  OFFSET 0 15.95 0
                }
              }
            }
            JOINT RightShoulder
            {
              OFFSET -3.14734 6.94135 0.063802
              CHANNELS 3 Zrotation Xrotation Yrotation
              JOINT RightArm
              {
                OFFSET -12.765 0.137663 0.228635
                CHANNELS 3 Zrotation Xrotation Yrotation
                JOINT RightForeArm
                {
                  OFFSET -26.5344 -0.389186 -0.00603507
                  CHANNELS 3 Zrotation Xrotation Yrotation
                  JOINT RightHand
                  {
                    OFFSET -26.1352 -0.0585664 0.0704552
                    CHANNELS 3 Zrotation Xrotation Yrotation
                    JOINT RightHandThumb1
                    {
                      OFFSET -2.48905 0.190105 3.12053
                      CHANNELS 3 Zrotation Xrotation Yrotation
                      JOINT RightHandThumb2
                      {
                        OFFSET -3.68274 0 0
                        CHANNELS 3 Zrotation Xrotation Yrotation
                        JOINT RightHandThumb3
                        {
                          OFFSET -2.55832 0 0
                          CHANNELS 3 Zrotation Xrotation Yrotation
                          End Site
                          {
                            OFFSET -2.194 0 0
                          }
                        }
                      }
                    }
                    JOINT RightInHandIndex
                    {
                      OFFSET -3.22368 0.508421 1.97842
                      CHANNELS 3 Zrotation Xrotation Yrotation
                      JOINT RightHandIndex1
                      {
                        OFFSET -5.21684 -0.091368 0.999158
                        CHANNELS 3 Zrotation Xrotation Yrotation
                        JOINT RightHandIndex2
                        {
                          OFFSET -3.61937 0 0
                          CHANNELS 3 Zrotation Xrotation Yrotation
                          JOINT RightHandIndex3
                          {
                            OFFSET -2.0521 0 0
                            CHANNELS 3 Zrotation Xrotation Yrotation
                            End Site
                            {
                              OFFSET -1.805 0 0
                            }
                          }
                        }
                      }
                    }
                    JOINT RightInHandMiddle
                    {
                      OFFSET -3.38211 0.517263 0.756737
                      CHANNELS 3 Zrotation Xrotation Yrotation
                      JOINT RightHandMiddle1
                      {
                        OFFSET -5.17411 -0.084 0.313895
                        CHANNELS 3 Zrotation Xrotation Yrotation
                        JOINT RightHandMiddle2
                        {
                          OFFSET -3.94947 0 0
                          CHANNELS 3 Zrotation Xrotation Yrotation
                          JOINT RightHandMiddle3
                          {
                            OFFSET -2.47579 0 0
                            CHANNELS 3 Zrotation Xrotation Yrotation
                            End Site
                            {
                              OFFSET -1.975 0 0
                            }
                          }
                        }
                      }
                    }
                    JOINT RightInHandRing
                    {
                      OFFSET -3.36516 0.537895 -0.128947
                      CHANNELS 3 Zrotation Xrotation Yrotation
                      JOINT RightHandRing1
                      {
                        OFFSET -4.63474 -0.022105 -0.478947
                        CHANNELS 3 Zrotation Xrotation Yrotation
                        JOINT RightHandRing2
                        {
                          OFFSET -3.44238 0 0
                          CHANNELS 3 Zrotation Xrotation Yrotation
                          JOINT RightHandRing3
                          {
                            OFFSET -2.3881 0 0
                            CHANNELS 3 Zrotation Xrotation Yrotation
                            End Site
                            {
                              OFFSET -1.857 0 0
                            }
                          }
                        }
                      }
                    }
                    JOINT RightInHandPinky
                    {
                      OFFSET -3.16105 0.469368 -1.20179
                      CHANNELS 3 Zrotation Xrotation Yrotation
                      JOINT RightHandPinky1
                      {
                        OFFSET -4.14105 -0.022105 -1.09053
                        CHANNELS 3 Zrotation Xrotation Yrotation
                        JOINT RightHandPinky2
                        {
                          OFFSET -2.75653 0 0
                          CHANNELS 3 Zrotation Xrotation Yrotation
                          JOINT RightHandPinky3
                          {
                            OFFSET -1.74189 0 0
                            CHANNELS 3 Zrotation Xrotation Yrotation
                            End Site
                            {
                              OFFSET -1.645 0 0
                            }
                          }
                        }
                      }
                    }
                  }
                }
              }
            }
            JOINT LeftShoulder
            {
              OFFSET 3.26179 6.89719 -0.0373062
              CHANNELS 3 Zrotation Xrotation Yrotation
              JOINT LeftArm
              {
                OFFSET 12.4839 0.0196156 -0.0323257
                CHANNELS 3 Zrotation Xrotation Yrotation
                JOINT LeftForeArm
                {
                  OFFSET 26.5039 -0.120667 0.247609
                  CHANNELS 3 Zrotation Xrotation Yrotation
                  JOINT LeftHand
                  {
                    OFFSET 25.9984 -0.032285 0.00286418
                    CHANNELS 3 Zrotation Xrotation Yrotation
                    JOINT LeftHandThumb1
                    {
                      OFFSET 2.48905 0.190105 3.12053
                      CHANNELS 3 Zrotation Xrotation Yrotation
                      JOINT LeftHandThumb2
                      {
                        OFFSET 3.68274 0 0
                        CHANNELS 3 Zrotation Xrotation Yrotation
                        JOINT LeftHandThumb3
                        {
                          OFFSET 2.55832 0 0
                          CHANNELS 3 Zrotation Xrotation Yrotation
                          End Site
                          {
                            OFFSET 2.194 0 0
                          }
                        }
                      }
                    }
                    JOINT LeftInHandIndex
                    {
                      OFFSET 3.22368 0.508421 1.97842
                      CHANNELS 3 Zrotation Xrotation Yrotation
                      JOINT LeftHandIndex1
                      {
                        OFFSET 5.21684 -0.091368 0.999158
                        CHANNELS 3 Zrotation Xrotation Yrotation
                        JOINT LeftHandIndex2
                        {
                          OFFSET 3.61937 0 0
                          CHANNELS 3 Zrotation Xrotation Yrotation
                          JOINT LeftHandIndex3
                          {
                            OFFSET 2.0521 0 0
                            CHANNELS 3 Zrotation Xrotation Yrotation
                            End Site
                            {
                              OFFSET 1.805 0 0
                            }
                          }
                        }
                      }
                    }
                    JOINT LeftInHandMiddle
                    {
                      OFFSET 3.38211 0.517263 0.756737
                      CHANNELS 3 Zrotation Xrotation Yrotation
                      JOINT LeftHandMiddle1
                      {
                        OFFSET 5.17411 -0.084 0.313895
                        CHANNELS 3 Zrotation Xrotation Yrotation
                        JOINT LeftHandMiddle2
                        {
                          OFFSET 3.94947 0 0
                          CHANNELS 3 Zrotation Xrotation Yrotation
                          JOINT LeftHandMiddle3
                          {
                            OFFSET 2.47579 0 0
                            CHANNELS 3 Zrotation Xrotation Yrotation
                            End Site
                            {
                              OFFSET 1.975 0 0
                            }
                          }
                        }
                      }
                    }
                    JOINT LeftInHandRing
                    {
                      OFFSET 3.36516 0.537895 -0.128947
                      CHANNELS 3 Zrotation Xrotation Yrotation
                      JOINT LeftHandRing1
                      {
                        OFFSET 4.63474 -0.022105 -0.478947
                        CHANNELS 3 Zrotation Xrotation Yrotation
                        JOINT LeftHandRing2
                        {
                          OFFSET 3.44238 0 0
                          CHANNELS 3 Zrotation Xrotation Yrotation
                          JOINT LeftHandRing3
                          {
                            OFFSET 2.3881 0 0
                            CHANNELS 3 Zrotation Xrotation Yrotation
                            End Site
                            {
                              OFFSET 1.857 0 0
                            }
                          }
                        }
                      }
                    }
                    JOINT LeftInHandPinky
                    {
                      OFFSET 3.16105 0.469368 -1.20179
                      CHANNELS 3 Zrotation Xrotation Yrotation
                      JOINT LeftHandPinky1
                      {
                        OFFSET 4.14105 -0.022105 -1.09053
                        CHANNELS 3 Zrotation Xrotation Yrotation
                        JOINT LeftHandPinky2
                        {
                          OFFSET 2.75653 0 0
                          CHANNELS 3 Zrotation Xrotation Yrotation
                          JOINT LeftHandPinky3
                          {
                            OFFSET 1.74189 0 0
                            CHANNELS 3 Zrotation Xrotation Yrotation
                            End Site
                            {
                              OFFSET 1.645 0 0
                            }
                          }
                        }
                      }
                    }
                  }
                }
              }
            }
          }
        }
      }
    }
  }
}
MOTION
Frames: 2
Frame Time: 0.00833333
3.000000000000000000e+02 0.000000000000000000e+00 0.000000000000000000e+00 0.000000000000000000e+00 0.000000000000000000e+00 0.000000000000000000e+00 2.434901621349087192e-02 3.420778849169787972e-02 1.757969636067707730e-01 -9.943083931115713481e-02 7.795697053086849890e-03 -1.032401805385568250e-01 -2.021378381577043290e-02 3.261267883588581801e-02 -3.310085066655833047e-02 4.814734729740072390e-03 -5.536908556492130956e-02 -7.367505891900909265e-02 -4.990867633019202554e-02 -7.603788362246975685e-02 -9.428290964775477845e-02 4.116721547942829573e-02 -4.990161331624500679e-02 -7.188382002480978028e-02 -4.079702923892188776e-02 3.570724300050479721e-02 -3.444843848643307921e-02 -3.300312806734926468e-02 2.386706749984347092e-02 7.509745222680669352e-02 -6.616810103335223070e-03 8.863680497104012984e-03 1.785054335159615146e-02 -1.085021820927033892e-02 1.475316636855937558e-02 2.818160198815684164e-02 4.708917069999877386e-03 2.423873358083535317e-04 -1.345102186274628984e-02 4.541826162075914865e-03 2.074419589416313155e-03 -2.889956700143042623e-02 7.871857060512055249e-02 -2.625472648177163554e-02 -2.365910400087759546e-01 -4.094712425211458062e-02 -1.209365788354174187e-01 1.176826703348236997e-01 -2.341581439621303051e-01 4.326856242252939966e-01 2.130283910600795361e-01 -5.662672881123906876e-01 -4.819391842617288257e-01 -7.363425603721707180e-01 -8.018912477509457237e-02 3.813147011907381811e-01 -7.008437722524467617e-01 0.000000000000000000e+00 0.000000000000000000e+00 0.000000000000000000e+00 1.292720694317110432e-15 -1.216586890645161590e-17 0.000000000000000000e+00 1.541389937949141504e-15 -1.349433306354785297e-15 0.000000000000000000e+00 2.698917419782605075e-15 -9.257212741399181191e-16 -3.180662876940586361e-16 0.000000000000000000e+00 0.000000000000000000e+00 0.000000000000000000e+00 0.000000000000000000e+00 5.208340574487382050e-15 3.357131017763997112e-14 0.000000000000000000e+00 5.873031118296995933e-16 -1.029326783802336081e-15 2.698917419782605075e-15 -9.257212741399181191e-16 -3.180662876940586361e-16 0.000000000000000000e+00 2.083796992359889288e-16 2.394421167266228715e-15 0.000000000000000000e+00 1.033415501196474012e-14 3.517232501987185531e-14 0.000000000000000000e+00 1.320609509001839965e-15 -7.657657689470386097e-16 2.698917419782605075e-15 -9.257212741399181191e-16 -3.180662876940586361e-16 0.000000000000000000e+00 0.000000000000000000e+00 0.000000000000000000e+00 0.000000000000000000e+00 7.646774657762155594e-15 2.681713332248707784e-14 0.000000000000000000e+00 -5.266541348096298515e-16 -2.065794136141017518e-15 2.698917419782605075e-15 -9.257212741399181191e-16 -3.180662876940586361e-16 0.000000000000000000e+00 0.000000000000000000e+00 0.000000000000000000e+00 0.000000000000000000e+00 -4.870651630598824387e-15 -2.698571025121864613e-14 0.000000000000000000e+00 -1.059169908670851839e-15 1.643292682370555652e-15 -6.963248637138410614e-03 -4.247349445577813451e-03 1.046385005752340225e-01 -8.001675508815372373e-01 -2.611084582719791491e-01 1.038663534314159254e+00 -5.994229835048100474e-01 -3.481224049949051547e-01 -4.501104960825398349e-01 -5.800133990559439012e-02 2.709579664584951253e-01 -9.274901135660219842e-02 0.000000000000000000e+00 0.000000000000000000e+00 0.000000000000000000e+00 4.074343038116598633e-15 8.109397313878265907e-16 0.000000000000000000e+00 2.735035164564770104e-16 1.681079725849822641e-15 0.000000000000000000e+00 -4.680019473186554289e-16 -8.920876187003142875e-16 5.014137923260511455e-16 0.000000000000000000e+00 0.000000000000000000e+00 0.000000000000000000e+00 0.000000000000000000e+00 -9.365954017680531544e-16 -2.526733887277906102e-15 0.000000000000000000e+00 -7.344599677437379905e-17 -1.017928521649152205e-14 -4.680019473186554289e-16 -8.920876187003142875e-16 5.014137923260511455e-16 0.000000000000000000e+00 -1.754435894212616943e-15 -3.269170885109572453e-15 0.000000000000000000e+00 8.783578359510154390e-16 1.523413449179182742e-15 0.000000000000000000e+00 1.899910548613949343e-15 -6.125899079620986035e-15 -4.680019473186554289e-16 -8.920876187003142875e-16 5.014137923260511455e-16 0.000000000000000000e+00 0.000000000000000000e+00 0.000000000000000000e+00 0.000000000000000000e+00 5.680030359733738004e-16 -2.248235353512130307e-15 0.000000000000000000e+00 6.988927719277808064e-16 -5.928111379390386979e-15 -4.680019473186554289e-16 -8.920876187003142875e-16 5.014137923260511455e-16 0.000000000000000000e+00 0.000000000000000000e+00 0.000000000000000000e+00 0.000000000000000000e+00 3.023867776132565604e-15 -1.110096503642016057e-15 0.000000000000000000e+00 6.162131492893170675e-17 -4.075006124642512528e-15
3.000000000000000000e+02 0.000000000000000000e+00 0.000000000000000000e+00 0.000000000000000000e+00 0.000000000000000000e+00 0.000000000000000000e+00 2.199173184391164590e-02 2.431504502004040030e-02 1.452688720611060857e-01 -1.004810151364219084e-01 1.831597215755230088e-02 -1.166656953013725934e-01 -1.311077542518596442e-02 6.213292920140695876e-03 -2.303688018376827060e-02 -1.199069485850777885e-03 -2.380396598571330249e-02 -4.794150648244337176e-02 -6.815744572426434000e-02 -7.825639483418664333e-02 -1.272409771715961313e-01 9.534794907636869390e-03 -2.269716774796550970e-02 -3.026126699775411391e-02 -1.485423278774833725e-02 2.389071314508594765e-02 -5.775746820866216151e-03 -2.117404111761584610e-03 6.826712680665075923e-03 -9.478536412776426834e-03 -6.123480717104337872e-04 2.655899156151414909e-03 -2.745008857390182459e-03 -1.064540180022966040e-03 4.926594598388583761e-03 -4.696178176999805942e-03 2.183762029609180241e-03 4.421963228249457638e-04 -5.613318247684318321e-03 2.195637610612806261e-03 7.850124769579172514e-04 -9.608645719391904413e-03 3.650328071439669364e-02 -9.406394227985880388e-03 -9.976025538124091985e-02 -1.887295638466573999e-02 -6.083999166142218390e-02 5.847286899897742585e-02 -1.392663487029454084e-01 2.789785803248203688e-01 1.018545760459117905e-01 -3.112246926719121065e-01 -2.587783437036632050e-01 -3.102799384825021267e-01 -3.237519302372822705e-01 4.666091478978162677e-01 -1.260538623432671201e+00 0.000000000000000000e+00 0.000000000000000000e+00 0.000000000000000000e+00 4.940027278952391559e-15 -2.727644809485315005e-15 0.000000000000000000e+00 6.373660508569911359e-15 -2.772557918377216692e-15 0.000000000000000000e+00 1.228667352445457159e-15 8.413442723053292447e-16 3.851843275480278134e-16 0.000000000000000000e+00 0.000000000000000000e+00 0.000000000000000000e+00 0.000000000000000000e+00 2.363740663043578320e-15 1.600128115565899719e-14 0.000000000000000000e+00 3.501420693397733848e-15 1.395102518683476651e-14 1.228667352445457159e-15 8.413442723053292447e-16 3.851843275480278134e-16 0.000000000000000000e+00 -3.459787087165872334e-15 -8.922199435961760885e-15 0.000000000000000000e+00 3.145493427479520317e-15 1.766236780311063977e-14 0.000000000000000000e+00 3.141692985405949234e-15 1.509866962282146805e-14 1.228667352445457159e-15 8.413442723053292447e-16 3.851843275480278134e-16 0.000000000000000000e+00 0.000000000000000000e+00 0.000000000000000000e+00 0.000000000000000000e+00 4.558588441572087836e-15 7.859986799245410302e-15 0.000000000000000000e+00 3.010815333670871369e-16 7.288588972996956496e-15 1.228667352445457159e-15 8.413442723053292447e-16 3.851843275480278134e-16 0.000000000000000000e+00 0.000000000000000000e+00 0.000000000000000000e+00 0.000000000000000000e+00 -1.088306722908386749e-14 -6.382509627437526750e-14 0.000000000000000000e+00 2.528529423638279541e-15 1.204148704269474145e-14 9.231066667352092869e-05 2.439232018955719860e-04 5.324128264245370917e-02 -1.009612197794132582e+00 -3.521991269047320960e-01 1.277064536412980900e+00 -8.987381476423470517e-01 2.762891826023953779e-01 -9.267228126207972538e-01 -5.647146164522946071e-02 1.867046686034407876e-01 -8.210663351295163781e-02 0.000000000000000000e+00 0.000000000000000000e+00 0.000000000000000000e+00 3.786435843240856758e-15 4.997453636084664929e-15 0.000000000000000000e+00 -2.525553923843022943e-15 5.124907014272560230e-15 0.000000000000000000e+00 -1.491900837143755436e-15 -7.638797131868394495e-16 3.379045152842995576e-16 0.000000000000000000e+00 0.000000000000000000e+00 0.000000000000000000e+00 0.000000000000000000e+00 -1.452876872384903542e-16 -1.267963087017701126e-15 0.000000000000000000e+00 2.799697060501805419e-16 -1.128495629982046881e-14 -1.491900837143755436e-15 -7.638797131868394495e-16 3.379045152842995576e-16 0.000000000000000000e+00 -1.658644844823154330e-15 -2.290071853010304868e-15 0.000000000000000000e+00 4.243936513563776098e-16 -1.541406897539286457e-16 0.000000000000000000e+00 2.630629962106831250e-15 -1.051461072919400242e-14 -1.491900837143755436e-15 -7.638797131868394495e-16 3.379045152842995576e-16 0.000000000000000000e+00 0.000000000000000000e+00 0.000000000000000000e+00 0.000000000000000000e+00 3.169752780173978812e-16 -3.575082922383137723e-15 0.000000000000000000e+00 1.406086731532810908e-15 -1.034957190512219645e-14 -1.491900837143755436e-15 -7.638797131868394495e-16 3.379045152842995576e-16 0.000000000000000000e+00 0.000000000000000000e+00 0.000000000000000000e+00 0.000000000000000000e+00 1.796101926770674216e-15 -3.559037756122989997e-15 0.000000000000000000e+00 1.257449602399622601e-15 -1.195853315638429638e-14
